<svg width="16" height="14" viewBox="0 0 16 14" fill="none" xmlns="http://www.w3.org/2000/svg">
<path d="M15.9925 4.68916C15.9322 3.56145 15.4547 2.50255 14.6481 1.70749C13.8294 0.900499 12.7603 0.456055 11.6378 0.456055C9.9569 0.456055 8.76676 1.75441 8.1274 2.45198C8.09101 2.49164 8.05192 2.53426 8.01374 2.57546C7.99326 2.55223 7.97292 2.52906 7.95354 2.50698C7.36911 1.84125 6.15291 0.456055 4.36242 0.456055C3.23992 0.456055 2.17088 0.900499 1.3522 1.70749C0.545529 2.50255 0.0680965 3.56145 0.00776763 4.68916C-0.0521762 5.81018 0.232846 6.78295 0.931699 7.84333C1.55803 8.7939 3.18909 10.2968 4.39548 11.2949C5.63543 12.3209 7.26861 13.5439 8.007 13.5439C8.757 13.5439 10.3844 12.3235 11.6175 11.2997C12.8145 10.3058 14.4366 8.80417 15.0688 7.84295C15.5391 7.12773 16.0693 6.12287 15.9925 4.68916ZM14.2645 7.31398C13.8051 8.01257 12.5104 9.30323 11.0426 10.5258C9.29245 11.9836 8.25627 12.5581 8.00777 12.5809C7.75965 12.5551 6.7209 11.9748 4.96225 10.5143C3.48586 9.28821 2.18917 8.00192 1.73555 7.31359C1.15723 6.43613 0.920852 5.64261 0.969051 4.7405C1.06705 2.90887 2.58933 1.41869 4.36236 1.41869C5.717 1.41869 6.70126 2.53978 7.2301 3.14198C7.54099 3.49612 7.71228 3.69116 8.00019 3.69116C8.29741 3.69116 8.48911 3.482 8.8371 3.10238C9.41433 2.47258 10.3804 1.41869 11.6378 1.41869C13.4109 1.41869 14.9331 2.90887 15.0312 4.7405C15.08 5.65281 14.8507 6.42252 14.2645 7.31398Z" fill="#1D1D1B"/>
</svg>
